<svg fill="#000000" xmlns="http://www.w3.org/2000/svg"  viewBox="0 0 24 24" width="48px" height="48px"><path d="M12 5A1 1 0 1012 7 1 1 0 1012 5zM7.757 6.757A1 1 0 107.757 8.757 1 1 0 107.757 6.757zM6 11A1 1 0 106 13 1 1 0 106 11zM7.757 15.242999999999999A1 1 0 107.757 17.243 1 1 0 107.757 15.242999999999999zM12 17A1 1 0 1012 19 1 1 0 1012 17zM16.243 15.242999999999999A1 1 0 1016.243 17.243 1 1 0 1016.243 15.242999999999999zM18 11A1 1 0 1018 13 1 1 0 1018 11zM16.243 6.757A1 1 0 1016.243 8.757 1 1 0 1016.243 6.757zM14.97 1.41C14.77 2.87 13.52 4 12 4S9.23 2.87 9.03 1.41C9.97 1.14 10.97 1 12 1S14.03 1.14 14.97 1.41zM6.34 6.34C5.27 7.41 3.59 7.5 2.41 6.6 3.4 4.85 4.85 3.4 6.6 2.41 7.5 3.59 7.41 5.27 6.34 6.34zM4 12c0 1.52-1.13 2.77-2.59 2.97C1.14 14.03 1 13.03 1 12c0-1.03.14-2.03.41-2.97C2.87 9.23 4 10.48 4 12zM6.6 21.59c-1.75-.99-3.2-2.44-4.19-4.19 1.18-.9 2.86-.81 3.93.26C7.41 18.73 7.5 20.41 6.6 21.59zM14.97 22.59C14.03 22.86 13.03 23 12 23s-2.03-.14-2.97-.41C9.23 21.13 10.48 20 12 20S14.77 21.13 14.97 22.59zM21.59 17.4c-.99 1.75-2.44 3.2-4.19 4.19-.9-1.18-.81-2.86.26-3.93C18.73 16.59 20.41 16.5 21.59 17.4zM23 12c0 1.03-.14 2.03-.41 2.97C21.13 14.77 20 13.52 20 12c0-1.52 1.13-2.77 2.59-2.97C22.86 9.97 23 10.97 23 12zM21.59 6.6c-1.18.9-2.86.81-3.93-.26-1.07-1.07-1.16-2.75-.26-3.93C19.15 3.4 20.6 4.85 21.59 6.6z"/></svg>