<?xml version="1.0" encoding="UTF-8"?>
<svg xmlns="http://www.w3.org/2000/svg" xmlns:xlink="http://www.w3.org/1999/xlink" width="20px" height="20px" viewBox="0 0 20 20" version="1.1">
<g id="surface1">
<path style=" stroke:none;fill-rule:nonzero;fill:rgb(0%,0%,0%);fill-opacity:1;" d="M 0 0 L 0 20 L 20 20 L 20 0 Z M 19.332031 19.332031 L 0.667969 19.332031 L 0.667969 0.667969 L 19.332031 0.667969 Z M 19.332031 19.332031 "/>
<path style=" stroke:none;fill-rule:nonzero;fill:rgb(0%,0%,0%);fill-opacity:1;" d="M 18.335938 18.335938 L 18.335938 1.664062 L 1.664062 1.664062 L 1.664062 18.335938 Z M 10.332031 17.664062 L 10.332031 10.332031 L 17.664062 10.332031 L 17.664062 17.664062 Z M 17.664062 9.667969 L 10.332031 9.667969 L 10.332031 2.335938 L 17.664062 2.335938 Z M 9.667969 2.335938 L 9.667969 9.667969 L 2.335938 9.667969 L 2.335938 2.335938 Z M 2.335938 10.332031 L 9.667969 10.332031 L 9.667969 17.664062 L 2.335938 17.664062 Z M 2.335938 10.332031 "/>
</g>
</svg>
